<svg xmlns="http://www.w3.org/2000/svg" style="display: none;">
    <defs>
        <!-- Document icon -->
        <symbol id="document" viewBox="0 0 20 20" fill="currentColor">
            <path d="M9 2a1 1 0 000 2h2a1 1 0 100-2H9z"/>
            <path fill-rule="evenodd" d="M4 5a2 2 0 012-2 1 1 0 000 2H6a2 2 0 100 4h2a2 2 0 100-4h-.5a1 1 0 000-2H8a2 2 0 012 2v9a2 2 0 01-2 2H6a2 2 0 01-2-2V5z" clip-rule="evenodd"/>
        </symbol>
        
        <!-- Lightning icon -->
        <symbol id="lightning" viewBox="0 0 20 20" fill="currentColor">
            <path fill-rule="evenodd" d="M11.3 1.046A1 1 0 0112 2v5h4a1 1 0 01.82 1.573l-7 10A1 1 0 018 18v-5H4a1 1 0 01-.82-1.573l7-10a1 1 0 011.12-.38z" clip-rule="evenodd"/>
        </symbol>
        
        <!-- Users icon -->
        <symbol id="users" viewBox="0 0 20 20" fill="currentColor">
            <path d="M13 6a3 3 0 11-6 0 3 3 0 016 0zM18 8a2 2 0 11-4 0 2 2 0 014 0zM14 15a4 4 0 00-8 0v3h8v-3zM6 8a2 2 0 11-4 0 2 2 0 014 0zM16 18v-3a5.972 5.972 0 00-.75-2.906A3.005 3.005 0 0119 15v3h-3zM4.75 12.094A5.973 5.973 0 004 15v3H1v-3a3 3 0 013.75-2.906z"/>
        </symbol>
        
        <!-- Shield icon -->
        <symbol id="shield" viewBox="0 0 20 20" fill="currentColor">
            <path fill-rule="evenodd" d="M2.166 4.999A11.954 11.954 0 0010 1.944 11.954 11.954 0 0017.834 5c.11.65.166 1.32.166 2.001 0 5.225-3.34 9.67-8 11.317C5.34 16.67 2 12.225 2 7c0-.682.057-1.35.166-2.001zm11.541 3.708a1 1 0 00-1.414-1.414L9 10.586 7.707 9.293a1 1 0 00-1.414 1.414l2 2a1 1 0 001.414 0l4-4z" clip-rule="evenodd"/>
        </symbol>
        
        <!-- Home icon -->
        <symbol id="home" viewBox="0 0 24 24" fill="none" stroke="currentColor" stroke-width="2" stroke-linecap="round" stroke-linejoin="round">
            <path d="m3 9 9-7 9 7v11a2 2 0 0 1-2 2H5a2 2 0 0 1-2-2z"></path>
            <polyline points="9 22 9 12 15 12 15 22"></polyline>
        </symbol>
        
        <!-- User icon -->
        <symbol id="user" viewBox="0 0 24 24" fill="none" stroke="currentColor" stroke-width="2" stroke-linecap="round" stroke-linejoin="round">
            <path d="M20 21v-2a4 4 0 0 0-4-4H8a4 4 0 0 0-4 4v2"></path>
            <circle cx="12" cy="7" r="4"></circle>
        </symbol>
        
        <!-- Brief icon -->
        <symbol id="brief" viewBox="0 0 24 24" fill="none" stroke="currentColor" stroke-width="2" stroke-linecap="round" stroke-linejoin="round">
            <path d="M14 2H6a2 2 0 0 0-2 2v16a2 2 0 0 0 2 2h12a2 2 0 0 0 2-2V8z"></path>
            <polyline points="14 2 14 8 20 8"></polyline>
            <line x1="16" y1="13" x2="8" y2="13"></line>
            <line x1="16" y1="17" x2="8" y2="17"></line>
            <polyline points="10 9 9 9 8 9"></polyline>
        </symbol>
        
        <!-- Info icon (для "О проекте") -->
        <symbol id="info" viewBox="0 0 24 24" fill="none" stroke="currentColor" stroke-width="2" stroke-linecap="round" stroke-linejoin="round">
            <circle cx="12" cy="12" r="10"></circle>
            <line x1="12" y1="16" x2="12" y2="12"></line>
            <line x1="12" y1="8" x2="12.01" y2="8"></line>
        </symbol>
        
        <!-- File Text icon (для "Ответы клиентов") -->
        <symbol id="file-text" viewBox="0 0 24 24" fill="none" stroke="currentColor" stroke-width="2" stroke-linecap="round" stroke-linejoin="round">
            <path d="M14 2H6a2 2 0 0 0-2 2v16a2 2 0 0 0 2 2h12a2 2 0 0 0 2-2V8z"></path>
            <polyline points="14 2 14 8 20 8"></polyline>
            <line x1="16" y1="13" x2="8" y2="13"></line>
            <line x1="16" y1="17" x2="8" y2="17"></line>
            <line x1="10" y1="9" x2="8" y2="9"></line>
        </symbol>
        
        <!-- Settings/Gear icon (для настроек) -->
        <symbol id="settings" viewBox="0 0 24 24" fill="none" stroke="currentColor" stroke-width="2" stroke-linecap="round" stroke-linejoin="round">
            <circle cx="12" cy="12" r="3"></circle>
            <path d="M12 1v6m0 6v6m6.36-15.36-4.24 4.24m-4.24 4.24-4.24 4.24m15.36-4.24-4.24-4.24m-4.24-4.24-4.24-4.24"></path>
        </symbol>
        
        <!-- Menu/Burger icon (для мобилки) -->
        <symbol id="menu" viewBox="0 0 24 24" fill="none" stroke="currentColor" stroke-width="2" stroke-linecap="round" stroke-linejoin="round">
            <line x1="3" y1="12" x2="21" y2="12"></line>
            <line x1="3" y1="6" x2="21" y2="6"></line>
            <line x1="3" y1="18" x2="21" y2="18"></line>
        </symbol>
        
        <!-- Clipboard/Log icon (для логов/истории) -->
        <symbol id="clipboard" viewBox="0 0 24 24" fill="none" stroke="currentColor" stroke-width="2" stroke-linecap="round" stroke-linejoin="round">
            <path d="M16 4h2a2 2 0 0 1 2 2v14a2 2 0 0 1-2 2H6a2 2 0 0 1-2-2V6a2 2 0 0 1 2-2h2"></path>
            <rect x="8" y="2" width="8" height="4" rx="1" ry="1"></rect>
        </symbol>
        
        <!-- Activity/Stats icon (для статистики/активности) -->
        <symbol id="activity" viewBox="0 0 24 24" fill="none" stroke="currentColor" stroke-width="2" stroke-linecap="round" stroke-linejoin="round">
            <polyline points="22 12 18 12 15 21 9 3 6 12 2 12"></polyline>
        </symbol>

        <!-- Palette/Color icon (для типа color) -->
        <symbol id="palette" viewBox="0 0 24 24" fill="none" stroke="currentColor" stroke-width="2" stroke-linecap="round" stroke-linejoin="round">
            <circle cx="13.5" cy="6.5" r=".5"></circle>
            <circle cx="17.5" cy="10.5" r=".5"></circle>
            <circle cx="8.5" cy="7.5" r=".5"></circle>
            <circle cx="6.5" cy="12.5" r=".5"></circle>
            <path d="M12 2C6.5 2 2 6.5 2 12s4.5 10 10 10c.926 0 1.648-.746 1.648-1.688 0-.437-.18-.835-.437-1.125-.29-.289-.438-.652-.438-1.125a1.64 1.64 0 0 1 1.668-1.668h1.996c3.051 0 5.555-2.503 5.555-5.554C21.965 6.012 17.461 2 12 2z"></path>
        </symbol>

        <!-- Иконка Глаз (view/eye) -->
        <symbol id="eye" viewBox="0 0 24 24">
            <path d="M1 12s4-8 11-8 11 8 11 8-4 8-11 8-11-8-11-8z" fill="none" stroke="currentColor" stroke-width="2" stroke-linecap="round" stroke-linejoin="round"/>
            <circle cx="12" cy="12" r="3" fill="none" stroke="currentColor" stroke-width="2" stroke-linecap="round" stroke-linejoin="round"/>
        </symbol>

        <!-- Иконка Конверт (mail) -->
        <symbol id="mail" viewBox="0 0 24 24">
            <path d="M4 4h16c1.1 0 2 .9 2 2v12c0 1.1-.9 2-2 2H4c-1.1 0-2-.9-2-2V6c0-1.1.9-2 2-2z" fill="none" stroke="currentColor" stroke-width="2" stroke-linecap="round" stroke-linejoin="round"/>
            <polyline points="22,6 12,13 2,6" fill="none" stroke="currentColor" stroke-width="2" stroke-linecap="round" stroke-linejoin="round"/>
        </symbol>

        <!-- Иконка Самолетик (send) -->
        <symbol id="send" viewBox="0 0 24 24">
            <line x1="22" y1="2" x2="11" y2="13" stroke="currentColor" stroke-width="2" stroke-linecap="round" stroke-linejoin="round"/>
            <polygon points="22 2 15 22 11 13 2 9 22 2" fill="none" stroke="currentColor" stroke-width="2" stroke-linecap="round" stroke-linejoin="round"/>
        </symbol>

        <!-- Иконка Карандаш (pencil) -->
        <symbol id="pencil" viewBox="0 0 24 24">
            <path d="M17 3a2.828 2.828 0 1 1 4 4L7.5 20.5 2 22l1.5-5.5L17 3z" fill="none" stroke="currentColor" stroke-width="2" stroke-linecap="round" stroke-linejoin="round"/>
        </symbol>

        <!-- Иконка Мусорка (trash) -->
        <symbol id="trash" viewBox="0 0 24 24">
            <polyline points="3 6 5 6 21 6" fill="none" stroke="currentColor" stroke-width="2" stroke-linecap="round" stroke-linejoin="round"/>
            <path d="M19 6v14a2 2 0 0 1-2 2H7a2 2 0 0 1-2-2V6m3 0V4a2 2 0 0 1 2-2h4a2 2 0 0 1 2 2v2" fill="none" stroke="currentColor" stroke-width="2" stroke-linecap="round" stroke-linejoin="round"/>
        </symbol>

        <!-- Иконка Сохранить (save/floppy) -->
        <symbol id="save" viewBox="0 0 24 24">
            <path d="M19 21H5a2 2 0 0 1-2-2V5a2 2 0 0 1 2-2h11l5 5v11a2 2 0 0 1-2 2z" fill="none" stroke="currentColor" stroke-width="2" stroke-linecap="round" stroke-linejoin="round"/>
            <polyline points="17 21 17 13 7 13 7 21" fill="none" stroke="currentColor" stroke-width="2" stroke-linecap="round" stroke-linejoin="round"/>
            <polyline points="7 3 7 8 15 8" fill="none" stroke="currentColor" stroke-width="2" stroke-linecap="round" stroke-linejoin="round"/>
        </symbol>

        <!-- Иконка Отмена (cancel/x-circle) -->
        <symbol id="cancel" viewBox="0 0 24 24">
            <circle cx="12" cy="12" r="10" fill="none" stroke="currentColor" stroke-width="2" stroke-linecap="round" stroke-linejoin="round"/>
            <line x1="15" y1="9" x2="9" y2="15" stroke="currentColor" stroke-width="2" stroke-linecap="round" stroke-linejoin="round"/>
            <line x1="9" y1="9" x2="15" y2="15" stroke="currentColor" stroke-width="2" stroke-linecap="round" stroke-linejoin="round"/>
        </symbol>
    </defs>
</svg>
